<svg width="100" height="67" viewBox="0 0 100 67" fill="none" xmlns="http://www.w3.org/2000/svg">
<path d="M18.8995 34.076C17.526 34.3846 16.334 35.5282 15.9951 36.8594C15.7531 37.8094 15.8862 38.9107 16.334 39.7275C16.6486 40.2903 17.4171 41.0345 17.9556 41.2947C18.6272 41.6214 19.2444 41.7546 19.9282 41.7122C20.9447 41.6517 21.7495 41.2947 22.4695 40.5686C23.1956 39.8425 23.5768 38.9107 23.5768 37.8578C23.5768 36.4359 22.8447 35.1833 21.6043 34.4754C20.8661 34.0579 19.7224 33.8885 18.8995 34.076Z" fill="#3D7595"/>
<path d="M4.05073 37.4887C3.50616 39.0438 3.4638 39.189 3.54246 39.304C3.59692 39.3766 4.8676 40.7562 6.38031 42.3778C7.89303 43.9994 9.16371 45.373 9.20606 45.4335C9.27262 45.5242 9.26657 45.615 9.18186 45.966C8.93982 46.9764 9.35733 47.993 10.1984 48.4226C10.9366 48.7978 13.012 49.1729 14.3916 49.1729C15.4929 49.1729 16.812 49.0156 17.9616 48.7433C18.2279 48.6828 18.4639 48.6283 18.4881 48.6283C18.5546 48.6283 19.3533 50.1229 19.6619 50.8187C20.1339 51.8776 20.7813 53.8442 20.6906 53.9349C20.6603 53.9712 19.4925 52.9063 18.2279 51.678C17.7741 51.2423 17.2719 50.7945 17.1145 50.6856C16.1403 50.014 14.8334 50.0866 13.8773 50.8611C13.5143 51.1576 13.363 51.327 12.7095 52.2407C12.4009 52.6642 11.6385 53.6929 11.0153 54.5219C9.50255 56.5186 8.69174 57.7288 8.0685 58.8966L7.80831 59.3867L4.95836 59.411C2.17497 59.4412 2.10236 59.4412 1.7272 59.5804C0.547287 60.0039 -0.148562 61.2383 0.0269133 62.5998C0.153981 63.6284 0.753016 64.4271 1.67275 64.8083L1.98739 64.9354L14.4764 64.9535C28.587 64.9717 27.2134 65.0201 28.3752 64.4513C29.6156 63.8402 30.3477 62.9265 30.6745 61.5832C30.8681 60.7966 30.7532 57.3416 30.4567 55.0422C29.9484 51.1515 28.829 47.6723 27.1287 44.7255C26.6628 43.9208 26.3965 43.5517 25.973 43.1402C25.1924 42.3959 24.3635 42.0389 23.2561 41.9905C21.8281 41.924 20.497 42.4262 19.426 43.4427C19.1416 43.715 18.9782 43.8118 18.5486 43.9692C17.0419 44.5137 15.9951 44.7134 14.5732 44.7134C13.6716 44.7134 13.3327 44.6832 12.5945 44.538C12.4372 44.5077 12.4312 44.4956 12.5159 44.3746C12.6006 44.2415 12.4554 44.0781 8.67359 40.0361C6.51343 37.7247 4.72843 35.8247 4.69817 35.8187C4.67397 35.8066 4.38353 36.5629 4.05073 37.4887ZM8.4013 40.5565C10.3194 42.6077 11.8805 44.2959 11.8684 44.308C11.8503 44.3201 11.6627 44.3141 11.4449 44.2899L11.0395 44.2536L8.0927 41.089L5.14594 37.9244L4.69212 38.3479C4.44404 38.5779 4.23226 38.7594 4.22016 38.7473C4.19595 38.7231 4.8676 36.8292 4.89785 36.8292C4.90995 36.8292 6.48318 38.5052 8.4013 40.5565ZM17.2053 58.2734C17.8709 58.8664 18.4336 59.3746 18.4518 59.4049C18.4699 59.4352 17.5623 59.4594 16.3884 59.4594C14.5429 59.4594 14.2948 59.4473 14.313 59.3686C14.3372 59.2355 15.8862 57.154 15.9467 57.1721C15.9709 57.1842 16.5397 57.6744 17.2053 58.2734Z" fill="#3D7595"/>
<path d="M8 5C8 2.23858 10.2386 0 13 0H59C61.7614 0 64 2.23858 64 5V6C64 8.76142 61.7614 11 59 11H13C10.2386 11 8 8.76142 8 6V5Z" fill="#224F68"/>
<path d="M35.5 65.5C32.7386 65.5 30.5 63.2614 30.5 60.5V10.5C30.5 7.73858 32.7386 5.5 35.5 5.5H36.5C39.2614 5.5 41.5 7.73858 41.5 10.5V60.5C41.5 63.2614 39.2614 65.5 36.5 65.5H35.5Z" fill="#224F68"/>
<path d="M32.4835 63.3094C30.5309 61.3568 30.5309 58.191 32.4835 56.2383L61.3572 27.3647C63.3098 25.412 66.4756 25.412 68.4282 27.3647L69.1353 28.0718C71.088 30.0244 71.088 33.1902 69.1353 35.1428L40.2617 64.0165C38.3091 65.9691 35.1432 65.9691 33.1906 64.0165L32.4835 63.3094Z" fill="#224F68"/>
<path d="M62.1906 27.9835C64.1432 26.0308 67.309 26.0308 69.2617 27.9835L98.1473 56.8691C100.1 58.8218 100.1 61.9876 98.1473 63.9402L97.4402 64.6473C95.4876 66.5999 92.3218 66.5999 90.3692 64.6473L61.4835 35.7617C59.5309 33.809 59.5309 30.6432 61.4835 28.6906L62.1906 27.9835Z" fill="#224F68"/>
<path d="M94 66C91.2386 66 89 63.7614 89 61V11C89 8.23858 91.2386 6 94 6H95C97.7614 6 100 8.23858 100 11V61C100 63.7614 97.7614 66 95 66H94Z" fill="#224F68"/>
<path d="M42.5 27V42.0858C42.5 42.9767 43.5771 43.4229 44.2071 42.7929L59.2929 27.7071C59.9229 27.0771 59.4767 26 58.5858 26H43.5C42.9477 26 42.5 26.4477 42.5 27Z" fill="#224F68"/>
<path d="M87 26H71.9142C71.0233 26 70.5771 27.0771 71.2071 27.7071L86.2929 42.7929C86.9229 43.4229 88 42.9767 88 42.0858V27C88 26.4477 87.5523 26 87 26Z" fill="#224F68"/>
</svg>
